<svg xmlns="http://www.w3.org/2000/svg" viewBox="0 0 337.71 419.58">
    <defs>
        <style>.cls-1{fill:#7cb042;}.cls-2{fill:#478ecc;}</style>
    </defs>
    <g id="Layer_2">
        <g id="Layer_1-2">
            <path class="cls-1"
                  d="M327.61,60.66A49,49,0,0,0,297,42.12l-9.5-2.25c.14,1.18.24,2.38.31,3.59v0c0,.9.07,1.8.07,2.71V373.41a52.92,52.92,0,0,1-15.53,37.49h0c-.53.53-1.07,1.05-1.61,1.55h0l0,0h0c-.41.37-.84.71-1.25,1.07,1.1.07,2.2.11,3.27.11,9.33,0,17.48-2.64,23.79-7.79,8.53-6.93,13.76-18.41,15.13-33.19L337.5,95A48.9,48.9,0,0,0,327.61,60.66Z"/>
            <path class="cls-2"
                  d="M281.06,46.17c0-.79,0-1.58-.07-2.36a45.46,45.46,0,0,0-.62-5.64A46.22,46.22,0,0,0,234.88,0H46.18A46.19,46.19,0,0,0,0,46.17V373.41a46.19,46.19,0,0,0,46.18,46.17h61.21V253.76H17.05v-3A63.42,63.42,0,0,1,80.29,187.5H264v3a63.09,63.09,0,0,1-4.32,23c-.43,1.06-.88,2.13-1.35,3.18a63.93,63.93,0,0,1-12.91,18.55,63.06,63.06,0,0,1-44.66,18.57H173.66V401.34a62.61,62.61,0,0,1-2.72,18.24h63.94a45.94,45.94,0,0,0,31.24-12.18c.47-.43.95-.88,1.41-1.35a46,46,0,0,0,13.53-32.64Z"/>
        </g>
    </g>
</svg>
