<svg id="Layer_1" data-name="Layer 1" xmlns="http://www.w3.org/2000/svg" height="1000" width="1000"
     viewBox="0 0 1000 1000">
    <defs>
        <style>.cls-1{fill:#7cb042;}.cls-2{fill:#478ecc;}</style>
    </defs>
    <path class="cls-1"
          d="M701.87,887.9a98,98,0,0,1-11.34-.65l-.67-.07-2.73-1.08,3.73-9.48,1.47.58c19.73,2.1,36-1.94,48.41-12,14.24-11.59,22.68-30.5,25.07-56.21l49.08-528.3c4-42.93-26.15-82.33-68.62-89.72l-27.91-4.85,1.75-10,27.9,4.85a93.42,93.42,0,0,1,77,100.69L776,809.91c-2.62,28.13-12.57,50-28.79,63.17C735.14,882.86,719.63,887.9,701.87,887.9Z"/>
    <path class="cls-2"
          d="M723.36,188.64h-5.73V811.35a87.88,87.88,0,0,1-87.87,87.87H500.1V905l5.36,2a119.09,119.09,0,0,0,7.8-42.48V583.67h51.58A120.69,120.69,0,0,0,685.19,463.32v-5.73H335.58A120.68,120.68,0,0,0,215.23,577.94v5.73H387.16V899.22H270.65a87.88,87.88,0,0,1-87.87-87.87V188.64a87.88,87.88,0,0,1,87.87-87.86H629.76a87.88,87.88,0,0,1,87.87,87.86h11.46a99.32,99.32,0,0,0-99.33-99.32H270.65a99.34,99.34,0,0,0-99.33,99.32V811.35a99.34,99.34,0,0,0,99.33,99.33h128V572.21H221v5.73h5.73A109.22,109.22,0,0,1,335.58,469.05H679.46v-5.73h-5.73A109.22,109.22,0,0,1,564.84,572.21h-63v292.3a107.46,107.46,0,0,1-7.05,38.4l-3,7.77h138a99.32,99.32,0,0,0,99.33-99.33V188.64Z"/>
</svg>
