<?xml version="1.0" encoding="iso-8859-1"?>
<!-- Generator: Adobe Illustrator 19.0.0, SVG Export Plug-In . SVG Version: 6.00 Build 0)  -->
<svg version="1.1" id="Layer_1" xmlns="http://www.w3.org/2000/svg" xmlns:xlink="http://www.w3.org/1999/xlink" x="0px" y="0px"
	 viewBox="0 0 330 330" style="enable-background:new 0 0 330 330;" xml:space="preserve">
<g id="XMLID_450_">
	<g id="XMLID_451_">
		<path id="XMLID_452_" d="M315,45H15C6.716,45,0,51.716,0,60v210c0,8.284,6.716,15,15,15h300c8.284,0,15-6.716,15-15V60
			C330,51.716,323.284,45,315,45z M300,255H30V75h270V255z"/>
	</g>
	<g id="XMLID_455_">
		<circle id="XMLID_458_" cx="111.955" cy="136.43" r="36.615"/>
	</g>
	<g id="XMLID_459_">
		<path id="XMLID_460_" d="M111.955,173.044C80.5,173.044,55,198.542,55,230h113.91C168.91,198.542,143.41,173.044,111.955,173.044z
			"/>
	</g>
	<g id="XMLID_461_">
		<path id="XMLID_462_" d="M208.57,145H255c8.284,0,15-6.716,15-15s-6.716-15-15-15h-46.43c-8.284,0-15,6.716-15,15
			S200.286,145,208.57,145z"/>
	</g>
	<g id="XMLID_463_">
		<path id="XMLID_464_" d="M208.57,215H255c8.284,0,15-6.716,15-15s-6.716-15-15-15h-46.43c-8.284,0-15,6.716-15,15
			S200.286,215,208.57,215z"/>
	</g>
</g>
<g>
</g>
<g>
</g>
<g>
</g>
<g>
</g>
<g>
</g>
<g>
</g>
<g>
</g>
<g>
</g>
<g>
</g>
<g>
</g>
<g>
</g>
<g>
</g>
<g>
</g>
<g>
</g>
<g>
</g>
</svg>
