<svg id="svg" xmlns="http://www.w3.org/2000/svg" width="400" height="400" viewBox="0, 0, 400,400">
    <g id="svgg">
        <path id="path0"
              d="M199.600 33.200 C 199.634 33.843,199.769 35.762,199.900 37.463 C 201.410 57.141,200.552 68.751,196.722 80.474 C 193.987 88.846,190.816 94.970,181.888 109.121 C 177.498 116.079,174.926 120.426,173.149 123.888 L 172.750 124.665 170.249 124.730 C 113.969 126.188,54.115 142.376,28.222 163.141 C 21.362 168.643,18.243 173.245,17.717 178.642 C 15.720 199.154,20.692 232.487,29.552 257.979 C 53.179 325.965,103.025 364.250,173.650 368.656 C 178.746 368.974,179.999 369.012,187.108 369.062 C 195.258 369.120,195.917 369.085,193.259 368.745 C 183.409 367.481,170.846 364.251,159.848 360.154 C 108.620 341.072,73.894 301.392,61.482 247.756 C 61.292 246.938,61.115 246.182,61.088 246.076 C 61.061 245.971,61.392 246.554,61.824 247.372 C 77.084 276.314,101.480 303.316,126.710 319.191 C 167.548 344.887,216.204 346.272,253.732 322.807 C 284.337 303.672,308.647 269.474,328.239 217.999 C 330.040 213.265,330.305 212.615,330.765 211.807 C 334.357 205.496,341.629 203.004,348.548 205.712 C 369.090 213.752,368.800 237.722,347.977 252.845 C 342.097 257.115,334.847 260.516,326.278 263.022 C 323.575 263.813,322.136 264.684,320.852 266.307 C 317.211 270.909,318.829 277.810,324.110 280.205 C 326.392 281.240,328.328 281.276,331.572 280.345 C 368.108 269.861,388.202 242.092,379.986 213.439 C 375.374 197.354,361.427 185.813,339.333 179.796 C 330.928 177.508,326.995 174.656,323.602 168.392 C 312.679 148.228,272.854 132.039,220.830 126.615 C 219.299 126.456,217.760 126.293,217.409 126.253 L 216.772 126.182 218.014 124.694 C 229.715 110.671,234.095 99.158,232.677 86.153 C 232.477 84.323,232.366 83.671,231.901 81.593 C 231.475 79.688,231.517 79.634,230.961 82.793 C 228.663 95.857,224.285 104.141,212.726 117.294 C 211.640 118.530,209.779 120.649,208.591 122.004 C 207.403 123.358,206.259 124.662,206.048 124.901 L 205.664 125.337 202.736 125.169 C 198.685 124.937,195.214 124.795,191.937 124.726 C 190.406 124.694,189.098 124.640,189.032 124.605 C 188.950 124.562,189.232 124.138,189.916 123.278 C 202.405 107.584,207.981 97.392,210.833 85.049 C 214.762 68.042,211.166 49.325,201.046 34.106 C 199.445 31.698,199.522 31.746,199.600 33.200 M194.307 140.018 L 195.622 140.080 195.398 140.522 C 191.487 148.249,190.243 158.005,192.073 166.595 C 192.527 168.727,193.708 172.635,193.853 172.485 C 193.871 172.466,193.958 171.543,194.046 170.434 C 195.020 158.183,198.111 149.438,204.503 140.854 L 204.800 140.455 205.424 140.498 C 205.767 140.521,207.689 140.648,209.695 140.779 C 271.346 144.809,315.087 162.228,311.364 181.266 C 307.586 200.581,260.126 215.612,195.008 218.115 C 190.722 218.280,171.942 218.280,167.651 218.115 C 109.496 215.883,65.132 203.716,53.718 186.869 C 41.029 168.139,75.493 149.259,134.869 142.412 C 144.876 141.259,152.587 140.683,165.911 140.097 L 167.243 140.038 167.187 140.261 C 165.638 146.462,166.634 155.759,169.500 161.864 C 170.139 163.225,170.114 163.247,170.336 161.123 C 171.133 153.518,173.601 146.177,177.370 140.207 L 177.606 139.833 185.299 139.894 C 189.531 139.928,193.584 139.984,194.307 140.018 "
              stroke="none" fill="currentColor" fill-rule="evenodd"></path>
    </g>
</svg>
