<?xml version="1.0" encoding="utf-8"?>
<svg version="1.1" id="Layer_1" xmlns="http://www.w3.org/2000/svg" x="0px" y="0px" viewBox="0 0 1024 1024">
    <style type="text/css">
        .st0{fill:#FFFFFF;}
    </style>
    <g id="Icon">
        <circle fill="currentColor" cx="512" cy="512" r="512"/>
        <path class="st0" d="M429.3,443c-19-19-44-28.6-69.2-28.6c-25,0-50.2,9.6-69.2,28.6c-38.2,38.2-38.2,100.1,0,138.5
		c38.2,38.2,100.1,38.2,138.5,0C467.7,543.4,467.7,481.1,429.3,443L429.3,443z M401.8,553.9c-23.1,23.1-60.2,23.1-83,0
		c-23.1-23.1-23.1-60.2,0-83c23.1-23.1,60.2-23.1,83,0C424.6,493.7,424.6,530.8,401.8,553.9z"/>
        <path class="st0" d="M635.1,443c-19-19-44-28.6-69.2-28.6c-25,0-50.2,9.6-69.2,28.6c-38.2,38.2-38.2,100.1,0,138.5
		c38.2,38.2,100.1,38.2,138.5,0C673.2,543.4,673.2,481.1,635.1,443L635.1,443z M607.3,553.9c-23.1,23.1-60.2,23.1-83,0
		c-23.1-23.1-23.1-60.2,0-83c23.1-23.1,60.2-23.1,83,0C630.1,493.7,630.1,530.8,607.3,553.9z M115.4,609.7l9.8,0.4h146.9l-0.4-9.8
		c-1.3-16.1-12.7-27.9-28.8-28.8l-9.8-0.4h-88.1l117.6-117.6l-0.4-9.8c-0.8-16.1-12.7-28.2-28.8-28.8l-9.8-0.4H76.5l0.4,9.8
		c1.3,16,13,27.9,28.8,28.8l9.8,0.4h88.1L86,571l0.4,9.8C87.5,597,99.3,608.7,115.4,609.7L115.4,609.7z M785.6,473.1
		c3.4,5.9,4.3,12.2,4.9,19.5l0.4,9.8v68.5l0.4,9.8c0.9,16,12.7,27.9,28.8,28.8l9.8,0.4V502.2l0.4-9.8c0.4-7.3,1.4-13.9,4.9-19.8
		c6.9-11.8,19.5-19.3,33.8-19.3s27.1,7.9,34.1,19.5c3.4,5.9,4.3,12.6,4.7,19.5l0.4,9.8v68.5l0.4,9.8c0.9,16.1,12.7,27.9,28.8,28.8
		l9.8,0.4V492.1c0-43.4-35-78.4-78.4-78.4c-23.5,0-44.3,10.2-58.7,26.5c-14.4-16.1-35.3-26.5-58.7-26.5c-16.1,0-31.3,4.9-43.8,13.5
		c-7.6-8.5-24.8-13.5-34.6-13.5v195.8l9.8-0.4c16.4-0.9,28.2-12.7,28.8-28.8l0.4-9.8V502l0.4-9.8c0.4-7.3,1.4-13.9,4.9-19.5
		c6.8-11.8,19.4-19.5,33.8-19.5C766.3,453.5,779,461.4,785.6,473.1L785.6,473.1z"/>
    </g>
</svg>
